{
    "asset" : {
        "generator" : "Khronos glTF Blender I/O v1.5.17",
        "version" : "2.0"
    },
    "scene" : 0,
    "scenes" : [
        {
            "name" : "Scene",
            "nodes" : [
                0
            ]
        }
    ],
    "nodes" : [
        {
            "mesh" : 0,
            "name" : "pumpkinLarge",
            "scale" : [
                1.5,
                1.5,
                1.5
            ],
            "translation" : [
                0,
                1.212119460105896,
                0
            ]
        }
    ],
    "materials" : [
        {
            "name" : "Orange.008",
            "pbrMetallicRoughness" : {
                "baseColorFactor" : [
                    1,
                    0.16606298089027405,
                    0.017658168449997902,
                    1
                ],
                "metallicFactor" : 0,
                "roughnessFactor" : 0.20000000298023224
            }
        },
        {
            "doubleSided" : true,
            "name" : "GreenDark",
            "pbrMetallicRoughness" : {
                "baseColorFactor" : [
                    0.02141951024532318,
                    0.25731161236763,
                    0.26676133275032043,
                    1
                ],
                "metallicFactor" : 0,
                "roughnessFactor" : 0.4000000059604645
            }
        }
    ],
    "meshes" : [
        {
            "name" : "Sphere.018",
            "primitives" : [
                {
                    "attributes" : {
                        "POSITION" : 0,
                        "NORMAL" : 1,
                        "TEXCOORD_0" : 2
                    },
                    "indices" : 3,
                    "material" : 0
                },
                {
                    "attributes" : {
                        "POSITION" : 4,
                        "NORMAL" : 5,
                        "TEXCOORD_0" : 6
                    },
                    "indices" : 7,
                    "material" : 1
                }
            ]
        }
    ],
    "accessors" : [
        {
            "bufferView" : 0,
            "componentType" : 5126,
            "count" : 638,
            "max" : [
                0.4795667827129364,
                0.28151780366897583,
                0.4798707067966461
            ],
            "min" : [
                -0.4814903140068054,
                -0.4159921705722809,
                -0.4714043140411377
            ],
            "type" : "VEC3"
        },
        {
            "bufferView" : 1,
            "componentType" : 5126,
            "count" : 638,
            "type" : "VEC3"
        },
        {
            "bufferView" : 2,
            "componentType" : 5126,
            "count" : 638,
            "type" : "VEC2"
        },
        {
            "bufferView" : 3,
            "componentType" : 5123,
            "count" : 2574,
            "type" : "SCALAR"
        },
        {
            "bufferView" : 4,
            "componentType" : 5126,
            "count" : 195,
            "max" : [
                0.09496808797121048,
                0.3650702238082886,
                0.09423533827066422
            ],
            "min" : [
                -0.09452024102210999,
                0.22057563066482544,
                -0.08514082431793213
            ],
            "type" : "VEC3"
        },
        {
            "bufferView" : 5,
            "componentType" : 5126,
            "count" : 195,
            "type" : "VEC3"
        },
        {
            "bufferView" : 6,
            "componentType" : 5126,
            "count" : 195,
            "type" : "VEC2"
        },
        {
            "bufferView" : 7,
            "componentType" : 5123,
            "count" : 594,
            "type" : "SCALAR"
        }
    ],
    "bufferViews" : [
        {
            "buffer" : 0,
            "byteLength" : 7656,
            "byteOffset" : 0
        },
        {
            "buffer" : 0,
            "byteLength" : 7656,
            "byteOffset" : 7656
        },
        {
            "buffer" : 0,
            "byteLength" : 5104,
            "byteOffset" : 15312
        },
        {
            "buffer" : 0,
            "byteLength" : 5148,
            "byteOffset" : 20416
        },
        {
            "buffer" : 0,
            "byteLength" : 2340,
            "byteOffset" : 25564
        },
        {
            "buffer" : 0,
            "byteLength" : 2340,
            "byteOffset" : 27904
        },
        {
            "buffer" : 0,
            "byteLength" : 1560,
            "byteOffset" : 30244
        },
        {
            "buffer" : 0,
            "byteLength" : 1188,
            "byteOffset" : 31804
        }
    ],
    "buffers" : [
        {
            "byteLength" : 32992,
            "uri" : "data:application/octet-stream;base64,"
        }
    ]
}
